<?xml version="1.0" standalone="no"?>
<!DOCTYPE svg PUBLIC "-//W3C//DTD SVG 20010904//EN"
 "http://www.w3.org/TR/2001/REC-SVG-20010904/DTD/svg10.dtd">
<svg version="1.0" xmlns="http://www.w3.org/2000/svg"
 width="208.000000pt" height="208.000000pt" viewBox="0 0 208.000000 208.000000"
 preserveAspectRatio="xMidYMid meet">
<metadata>
Created by potrace 1.11, written by Peter Selinger 2001-2013
</metadata>
<g transform="translate(0.000000,208.000000) scale(0.100000,-0.100000)"
fill="#000000" stroke="none">
<path d="M83 1298 l2 -123 62 1 c46 0 68 5 83 19 24 22 26 71 4 96 -14 15 -14
20 -1 41 18 27 8 61 -22 77 -11 6 -44 11 -75 11 l-54 0 1 -122z m118 71 c17
-32 -14 -55 -68 -50 -8 1 -13 15 -13 36 0 33 2 35 35 35 25 0 37 -6 46 -21z
m4 -95 c32 -32 9 -65 -50 -69 -36 -2 -37 -1 -37 50 0 14 0 27 1 28 3 11 73 4
86 -9z"/>
<path d="M290 1297 c0 -103 3 -124 15 -124 20 0 23 17 21 137 -1 91 -3 105
-18 108 -16 3 -18 -8 -18 -121z"/>
<path d="M390 1301 c0 -66 4 -122 8 -125 21 -13 29 14 28 91 -1 45 2 80 6 77
4 -3 29 -41 55 -84 44 -74 65 -96 81 -86 4 2 7 57 7 122 -1 104 -3 119 -18
122 -19 4 -19 2 -20 -100 0 -38 -3 -68 -6 -68 -3 0 -28 39 -55 85 -34 58 -55
85 -68 85 -16 0 -18 -10 -18 -119z"/>
<path d="M690 1398 c-56 -137 -80 -212 -71 -221 7 -7 17 2 31 27 20 33 26 36
66 36 42 0 46 -2 60 -35 14 -34 24 -42 36 -29 6 6 -40 143 -61 183 -7 11 -9
21 -6 21 3 0 1 9 -5 20 -14 27 -38 25 -50 -2z m54 -105 c7 -21 4 -23 -28 -23
-20 0 -36 1 -36 3 0 2 8 26 17 53 l17 49 12 -30 c6 -17 15 -40 18 -52z"/>
<path d="M849 1403 c-3 -61 -1 -225 3 -229 3 -2 11 -2 19 1 10 4 14 21 13 55
l-1 49 36 -1 c48 -1 61 -13 61 -58 0 -34 12 -50 37 -50 10 0 -6 103 -18 110
-9 6 -8 14 5 31 21 31 20 51 -5 83 -18 23 -27 26 -85 26 -54 0 -64 -3 -65 -17z
m131 -44 c0 -39 -11 -49 -55 -49 l-42 0 0 39 c0 35 3 40 26 43 36 5 71 -12 71
-33z"/>
<path d="M1040 1414 c0 -3 17 -35 37 -71 24 -44 37 -81 39 -112 1 -25 3 -49 3
-53 1 -3 9 -4 19 -1 14 3 18 13 16 41 -2 36 14 75 65 165 l21 38 -22 -3 c-16
-2 -30 -18 -48 -55 -14 -29 -28 -52 -32 -53 -4 0 -20 25 -34 55 -18 37 -33 55
-46 55 -10 0 -18 -3 -18 -6z"/>
<path d="M371 1132 c-8 -3 -38 -30 -66 -60 l-52 -55 -29 54 -29 54 -58 0 c-63
1 -69 -4 -80 -62 -5 -26 0 -40 31 -80 20 -26 42 -54 49 -61 10 -11 0 -25 -52
-79 -36 -36 -65 -70 -65 -75 0 -16 -2 -23 -12 -42 -14 -26 -1 -31 86 -34 l74
-3 32 51 c32 50 50 63 50 35 0 -8 4 -15 8 -15 5 0 14 -11 21 -24 10 -17 21
-23 44 -22 49 1 52 25 12 112 l-35 77 60 97 c33 53 60 104 60 112 0 17 -27 28
-49 20z"/>
<path d="M450 921 c0 -224 3 -253 24 -245 8 3 11 34 11 95 0 63 4 96 13 108
13 15 13 15 9 -1 -6 -19 13 -19 36 0 12 10 17 10 23 1 5 -8 3 -9 -6 -4 -8 5
-11 4 -7 -3 9 -13 30 -10 53 8 10 8 15 10 11 4 -4 -7 0 -15 9 -18 8 -3 13 -2
10 2 -3 5 10 16 29 25 42 20 47 14 8 -7 -16 -8 -22 -15 -15 -16 7 0 26 14 44
30 19 18 25 30 17 31 -8 0 -4 5 9 11 24 12 28 23 11 34 -8 5 -8 9 1 14 15 9
-3 74 -29 106 -29 37 -56 44 -160 44 l-101 0 0 -219z m109 188 c-12 -7 -11 -9
2 -9 8 0 21 6 28 13 11 10 13 10 7 0 -4 -7 -3 -13 1 -13 5 0 15 6 22 13 11 10
12 9 6 -2 -6 -11 -3 -13 13 -9 12 4 22 2 22 -3 0 -5 6 -9 13 -9 19 0 47 -64
41 -96 -13 -70 -48 -91 -149 -88 -38 1 -72 2 -75 3 -8 2 -6 188 2 197 4 4 15
1 25 -7 14 -12 16 -12 11 1 -4 11 2 15 20 17 18 1 21 -1 11 -8z"/>
<path d="M789 1123 c0 -10 -1 -109 -1 -219 -1 -190 1 -203 20 -222 18 -18 21
-18 26 -5 6 14 8 14 25 -1 14 -13 21 -14 27 -5 5 8 3 10 -6 4 -9 -6 -11 -4 -5
4 6 10 10 10 22 -2 17 -16 66 -11 56 7 -4 6 1 5 11 -3 15 -13 19 -13 27 0 5 8
9 9 9 3 0 -18 58 -15 64 3 4 9 4 18 2 21 -3 2 -58 6 -123 7 -141 3 -136 2
-127 16 4 7 6 44 5 83 -1 77 10 109 30 89 9 -9 18 -9 32 -2 14 8 18 8 13 0 -5
-7 3 -11 21 -10 25 0 26 1 8 9 -19 8 -19 9 3 9 12 1 22 -4 22 -10 0 -6 5 -7
13 -2 19 12 36 12 44 1 4 -7 1 -8 -7 -3 -9 5 -11 4 -6 -4 4 -6 12 -9 17 -5 5
3 7 10 4 15 -4 5 -1 9 4 9 6 0 11 5 11 10 0 6 -41 10 -104 10 -93 0 -104 2
-109 19 -2 10 0 26 6 37 6 11 6 19 1 21 -15 5 -4 84 13 90 12 5 12 7 1 14 -9
6 -6 8 9 6 12 0 19 -5 17 -9 -7 -11 4 -10 28 3 15 8 19 8 14 0 -4 -6 0 -11 9
-11 9 0 14 4 11 8 -3 5 1 9 9 9 8 0 12 -4 9 -9 -8 -13 10 -10 25 5 9 7 11 7 8
1 -4 -7 0 -14 8 -17 10 -4 12 -1 8 11 -5 14 -3 15 8 5 15 -15 33 -18 25 -5 -3
5 1 9 9 9 8 0 12 -4 9 -9 -3 -4 1 -8 8 -8 8 0 14 9 14 20 0 19 -7 20 -138 20
-125 0 -138 -2 -139 -17z"/>
<path d="M1117 1133 c-7 -15 -1 -438 6 -451 17 -26 23 0 23 92 -1 78 2 96 16
105 12 8 19 7 24 -1 5 -7 2 -8 -7 -3 -8 5 -10 4 -6 0 12 -14 39 -15 34 -1 -6
14 28 15 40 1 5 -4 3 -5 -4 -1 -6 3 -14 2 -17 -3 -4 -5 1 -8 10 -7 8 1 20 9
25 17 6 10 9 10 9 2 0 -7 5 -13 11 -13 5 0 7 6 3 13 -4 7 -3 9 2 4 5 -5 9 -12
10 -15 1 -8 15 -43 42 -105 28 -62 35 -81 34 -88 0 -3 5 -6 13 -6 8 0 13 7 12
16 -4 23 -48 134 -59 146 -4 5 -8 20 -8 35 0 20 2 22 10 10 9 -13 10 -13 10 0
0 8 10 26 21 40 l21 25 -16 -27 c-21 -35 -12 -37 10 -3 40 61 20 162 -39 203
-29 19 -46 22 -130 22 -52 0 -98 -3 -100 -7z m48 -23 c-9 -14 8 -12 24 3 11
10 12 9 6 -2 -6 -11 -4 -13 9 -8 10 4 27 2 39 -5 19 -10 20 -9 10 4 -11 12 -9
14 6 13 11 -1 26 -7 34 -14 11 -8 17 -9 22 -1 3 6 11 8 16 4 5 -3 7 -10 4 -15
-4 -5 0 -9 9 -9 23 0 40 -64 26 -104 -18 -57 -41 -69 -128 -71 -42 -1 -81 0
-87 2 -6 2 -10 42 -9 96 0 84 6 117 20 117 3 0 2 -4 -1 -10z"/>
<path d="M1440 1120 c6 -11 13 -20 16 -20 3 0 2 5 -2 11 -3 6 6 3 22 -7 20
-13 25 -14 17 -4 -9 12 -7 15 14 17 19 1 22 -1 12 -8 -12 -7 -11 -9 2 -9 8 0
20 5 26 11 22 22 27 -18 26 -215 0 -149 3 -203 12 -213 20 -20 21 -6 21 215
-1 167 1 206 13 215 12 9 13 9 7 0 -4 -8 -1 -13 9 -13 9 0 14 4 11 8 -3 5 1 9
9 9 8 0 12 -4 9 -9 -7 -11 3 -10 28 3 15 8 19 8 14 0 -4 -7 1 -11 13 -11 12 0
21 5 21 11 0 5 -6 7 -12 3 -9 -5 -9 -2 1 9 13 16 3 17 -143 17 -154 0 -156 0
-146 -20z"/>
<path d="M1839 1125 c-58 -31 -80 -124 -40 -164 11 -11 17 -22 14 -25 -4 -3 1
-6 9 -6 9 0 21 -6 27 -14 7 -8 20 -13 29 -11 9 1 23 -2 29 -7 7 -6 19 -8 27
-5 7 3 24 -2 37 -10 13 -10 19 -11 14 -4 -4 8 3 6 18 -4 16 -10 29 -30 33 -50
17 -90 -91 -140 -208 -95 -27 10 -50 14 -54 9 -3 -5 2 -12 11 -15 14 -6 14 -9
3 -16 -9 -7 -7 -8 10 -5 12 3 22 1 22 -4 0 -5 7 -9 15 -9 8 0 15 -3 15 -8 0
-4 20 -8 45 -8 30 -1 43 2 38 10 -3 6 0 5 8 -1 17 -16 43 -17 33 -1 -5 8 0 9
14 6 12 -4 20 -2 16 3 -5 9 10 13 30 10 5 -1 4 5 -3 13 -10 12 -9 17 7 25 11
6 23 7 27 3 5 -4 5 -1 0 7 -4 8 -2 17 6 22 9 5 10 9 2 9 -6 0 -9 8 -6 19 7 28
-23 84 -57 104 -16 10 -33 18 -37 18 -5 -1 -17 2 -28 4 -126 33 -137 42 -132
106 2 42 23 86 34 75 3 -2 18 0 34 4 18 5 27 5 24 -1 -8 -13 9 -11 22 2 8 8
13 7 18 -2 6 -8 4 -10 -5 -4 -8 5 -11 4 -6 -3 7 -11 37 -9 58 4 7 4 8 3 4 -4
-4 -7 -3 -12 3 -12 5 0 16 -3 24 -6 27 -10 8 32 -19 45 -35 15 -134 13 -165
-4z"/>
<path d="M1830 1085 c-8 -9 -8 -15 -2 -15 12 0 26 19 19 26 -2 2 -10 -2 -17
-11z"/>
</g>
</svg>
